<svg width="84" height="82" viewBox="0 0 84 82" fill="none" xmlns="http://www.w3.org/2000/svg">
<g clip-path="url(#clip0_1:5)">
<circle cx="47" cy="45" r="37" fill="#A5D2FF"/>
<path d="M36.756 57.75H24.848V22.39H36.756C39.8067 22.39 42.32 22.7193 44.296 23.378C46.272 24.002 47.7973 25.0593 48.872 26.55C49.9813 28.006 50.744 29.7393 51.16 31.75C51.576 33.726 51.784 36.3087 51.784 39.498C51.784 42.6873 51.5933 45.3393 51.212 47.454C50.8307 49.534 50.1027 51.406 49.028 53.07C47.988 54.6993 46.4627 55.8953 44.452 56.658C42.4413 57.386 39.876 57.75 36.756 57.75ZM44.296 43.71C44.3653 42.6007 44.4 41.0753 44.4 39.134C44.4 37.158 44.3307 35.5807 44.192 34.402C44.0533 33.2233 43.724 32.1487 43.204 31.178C42.684 30.2073 41.904 29.5487 40.864 29.202C39.8587 28.8207 38.4893 28.63 36.756 28.63H32.024V51.51H36.756C39.356 51.51 41.2453 50.8513 42.424 49.534C43.4293 48.4593 44.0533 46.518 44.296 43.71Z" fill="black"/>
<circle cx="37" cy="40.25" r="34" stroke="black" stroke-width="6"/>
</g>
<defs>
<clipPath id="clip0_1:5">
<rect width="84" height="82" fill="white"/>
</clipPath>
</defs>
</svg>
