<?xml version="1.0" encoding="utf-8"?>
<svg xmlns="http://www.w3.org/2000/svg" xmlns:xlink="http://www.w3.org/1999/xlink" style="margin: auto; background: none; display: block; shape-rendering: auto;" width="134px" height="134px" viewBox="0 0 100 100" preserveAspectRatio="xMidYMid">
<g transform="rotate(0 50 50)">
  <rect x="44" y="5.5" rx="6" ry="6.44" width="12" height="23" fill="#5675f9">
    <animate attributeName="opacity" values="1;0" keyTimes="0;1" dur="1.408450704225352s" begin="-1.3001083423618633s" repeatCount="indefinite"></animate>
  </rect>
</g><g transform="rotate(27.692307692307693 50 50)">
  <rect x="44" y="5.5" rx="6" ry="6.44" width="12" height="23" fill="#5675f9">
    <animate attributeName="opacity" values="1;0" keyTimes="0;1" dur="1.408450704225352s" begin="-1.191765980498375s" repeatCount="indefinite"></animate>
  </rect>
</g><g transform="rotate(55.38461538461539 50 50)">
  <rect x="44" y="5.5" rx="6" ry="6.44" width="12" height="23" fill="#5675f9">
    <animate attributeName="opacity" values="1;0" keyTimes="0;1" dur="1.408450704225352s" begin="-1.0834236186348862s" repeatCount="indefinite"></animate>
  </rect>
</g><g transform="rotate(83.07692307692308 50 50)">
  <rect x="44" y="5.5" rx="6" ry="6.44" width="12" height="23" fill="#5675f9">
    <animate attributeName="opacity" values="1;0" keyTimes="0;1" dur="1.408450704225352s" begin="-0.9750812567713976s" repeatCount="indefinite"></animate>
  </rect>
</g><g transform="rotate(110.76923076923077 50 50)">
  <rect x="44" y="5.5" rx="6" ry="6.44" width="12" height="23" fill="#5675f9">
    <animate attributeName="opacity" values="1;0" keyTimes="0;1" dur="1.408450704225352s" begin="-0.866738894907909s" repeatCount="indefinite"></animate>
  </rect>
</g><g transform="rotate(138.46153846153845 50 50)">
  <rect x="44" y="5.5" rx="6" ry="6.44" width="12" height="23" fill="#5675f9">
    <animate attributeName="opacity" values="1;0" keyTimes="0;1" dur="1.408450704225352s" begin="-0.7583965330444203s" repeatCount="indefinite"></animate>
  </rect>
</g><g transform="rotate(166.15384615384616 50 50)">
  <rect x="44" y="5.5" rx="6" ry="6.44" width="12" height="23" fill="#5675f9">
    <animate attributeName="opacity" values="1;0" keyTimes="0;1" dur="1.408450704225352s" begin="-0.6500541711809317s" repeatCount="indefinite"></animate>
  </rect>
</g><g transform="rotate(193.84615384615384 50 50)">
  <rect x="44" y="5.5" rx="6" ry="6.44" width="12" height="23" fill="#5675f9">
    <animate attributeName="opacity" values="1;0" keyTimes="0;1" dur="1.408450704225352s" begin="-0.5417118093174431s" repeatCount="indefinite"></animate>
  </rect>
</g><g transform="rotate(221.53846153846155 50 50)">
  <rect x="44" y="5.5" rx="6" ry="6.44" width="12" height="23" fill="#5675f9">
    <animate attributeName="opacity" values="1;0" keyTimes="0;1" dur="1.408450704225352s" begin="-0.4333694474539545s" repeatCount="indefinite"></animate>
  </rect>
</g><g transform="rotate(249.23076923076923 50 50)">
  <rect x="44" y="5.5" rx="6" ry="6.44" width="12" height="23" fill="#5675f9">
    <animate attributeName="opacity" values="1;0" keyTimes="0;1" dur="1.408450704225352s" begin="-0.32502708559046584s" repeatCount="indefinite"></animate>
  </rect>
</g><g transform="rotate(276.9230769230769 50 50)">
  <rect x="44" y="5.5" rx="6" ry="6.44" width="12" height="23" fill="#5675f9">
    <animate attributeName="opacity" values="1;0" keyTimes="0;1" dur="1.408450704225352s" begin="-0.21668472372697725s" repeatCount="indefinite"></animate>
  </rect>
</g><g transform="rotate(304.61538461538464 50 50)">
  <rect x="44" y="5.5" rx="6" ry="6.44" width="12" height="23" fill="#5675f9">
    <animate attributeName="opacity" values="1;0" keyTimes="0;1" dur="1.408450704225352s" begin="-0.10834236186348863s" repeatCount="indefinite"></animate>
  </rect>
</g><g transform="rotate(332.3076923076923 50 50)">
  <rect x="44" y="5.5" rx="6" ry="6.44" width="12" height="23" fill="#5675f9">
    <animate attributeName="opacity" values="1;0" keyTimes="0;1" dur="1.408450704225352s" begin="0s" repeatCount="indefinite"></animate>
  </rect>
</g>
<!-- [ldio] generated by https://loading.io/ --></svg>